<svg width="60" height="59" viewBox="0 0 60 59" fill="none" xmlns="http://www.w3.org/2000/svg">
<g id="Github">
<path id="Fill 51" fill-rule="evenodd" clip-rule="evenodd" d="M29.9445 0C13.4088 0 0 13.4076 0 29.9481C0 43.1802 8.58 54.4062 20.4779 58.3662C21.9744 58.6435 22.5238 57.7165 22.5238 56.9255C22.5238 56.2114 22.496 53.8522 22.4831 51.3497C14.1526 53.1614 12.3947 47.8162 12.3947 47.8162C11.0326 44.3545 9.06992 43.4341 9.06992 43.4341C6.35306 41.5753 9.27471 41.6135 9.27471 41.6135C12.2817 41.8243 13.865 44.6997 13.865 44.6997C16.5357 49.2782 20.8701 47.9545 22.5788 47.1893C22.8476 45.2542 23.6236 43.932 24.48 43.1846C17.8289 42.4273 10.8372 39.8594 10.8372 28.3839C10.8372 25.1142 12.0069 22.4426 13.9225 20.3453C13.6116 19.5905 12.5866 16.5449 14.2126 12.4197C14.2126 12.4197 16.7271 11.6148 22.4494 15.4896C24.838 14.826 27.3997 14.4932 29.9445 14.4818C32.4893 14.4932 35.0529 14.826 37.4459 15.4896C43.1613 11.6148 45.6724 12.4197 45.6724 12.4197C47.3023 16.5449 46.2769 19.5905 45.966 20.3453C47.8859 22.4426 49.0478 25.1142 49.0478 28.3839C49.0478 39.8867 42.0426 42.4194 35.3747 43.1608C36.4488 44.0902 37.4058 45.9128 37.4058 48.7069C37.4058 52.7135 37.3711 55.9386 37.3711 56.9255C37.3711 57.7225 37.9101 58.6563 39.4279 58.3623C51.3193 54.3977 59.8884 43.1757 59.8884 29.9481C59.8884 13.4076 46.4817 0 29.9445 0Z" fill="#674172"/>
<path id="Fill 52" fill-rule="evenodd" clip-rule="evenodd" d="M0.801952 0.507735C0.736001 0.657012 0.501952 0.70115 0.288729 0.598987C0.0715387 0.501288 -0.0504448 0.29845 0.0199684 0.149173C0.0844312 -0.00407113 0.318977 -0.0462257 0.535671 0.0554412C0.753357 0.153637 0.877324 0.358458 0.801952 0.507735Z" transform="translate(10.5395 42.4914)" fill="#674172"/>
<path id="Fill 53" fill-rule="evenodd" clip-rule="evenodd" d="M0.787283 0.830418C0.644474 0.962833 0.3653 0.901337 0.175878 0.692052C-0.0199893 0.483263 -0.0566835 0.204051 0.0881099 0.0696521C0.235383 -0.0627628 0.506126 -0.000770792 0.70249 0.208018C0.898358 0.419287 0.93654 0.696515 0.787283 0.830418Z" transform="translate(11.7671 43.5216)" fill="#674172"/>
<path id="Fill 54" fill-rule="evenodd" clip-rule="evenodd" d="M0.806037 1.02442C0.622566 1.15187 0.322566 1.03235 0.137111 0.766035C-0.0463597 0.499718 -0.0463597 0.180335 0.141078 0.0523834C0.327029 -0.0755681 0.622566 0.039489 0.8105 0.303823C0.993475 0.574108 0.993475 0.893987 0.806037 1.02442Z" transform="translate(12.929 45.0525)" fill="#674172"/>
<path id="Fill 55" fill-rule="evenodd" clip-rule="evenodd" d="M1.02739 0.988445C0.863255 1.16946 0.513668 1.12086 0.2578 0.873884C-0.00401795 0.632363 -0.0769105 0.289672 0.0877176 0.108655C0.253833 -0.0728578 0.605404 -0.0217763 0.863255 0.223216C1.12309 0.464241 1.20243 0.809413 1.02739 0.988445Z" transform="translate(14.3252 46.7548)" fill="#674172"/>
<path id="Fill 56" fill-rule="evenodd" clip-rule="evenodd" d="M1.25257 0.654119C1.18018 0.888697 0.843481 0.995323 0.504308 0.89564C0.16563 0.792981 -0.0560228 0.518233 0.0124069 0.281175C0.0828201 0.0451095 0.421002 -0.0659802 0.762655 0.0406461C1.10084 0.142809 1.32299 0.415574 1.25257 0.654119Z" transform="translate(16.3314 48.0567)" fill="#674172"/>
<path id="Fill 57" fill-rule="evenodd" clip-rule="evenodd" d="M1.28678 0.437097C1.29521 0.684073 1.0076 0.888894 0.65157 0.892862C0.293554 0.901293 0.00396694 0.70143 0 0.458422C0 0.208966 0.281157 0.0061281 0.639174 0.000176866C0.995207 -0.00676624 1.28678 0.191608 1.28678 0.437097Z" transform="translate(18.7478 48.4533)" fill="#674172"/>
<path id="Fill 58" fill-rule="evenodd" clip-rule="evenodd" d="M1.27671 0.342431C1.31936 0.583456 1.07192 0.830928 0.718366 0.896391C0.370762 0.960367 0.0489443 0.811586 0.00481209 0.572545C-0.0383284 0.325569 0.213572 0.0780969 0.56068 0.0141212C0.914729 -0.0473749 1.23159 0.0974384 1.27671 0.342431Z" transform="translate(21.0383 48.1596)" fill="#674172"/>
</g>
</svg>
