<svg width="60" height="60" viewBox="0 0 60 60" fill="none" xmlns="http://www.w3.org/2000/svg">
<path fill-rule="evenodd" clip-rule="evenodd" d="M30 0C13.4315 0 0 13.4315 0 30C0 46.5685 13.4315 60 30 60C46.5685 60 60 46.5685 60 30C60 13.4315 46.5685 0 30 0ZM29.1645 25.4224L29.1015 24.3844C28.9127 21.6939 30.5704 19.2364 33.1935 18.2831C34.1588 17.9441 35.7955 17.9017 36.8657 18.1983C37.2854 18.3254 38.0828 18.7492 38.6494 19.1305L39.6776 19.8296L40.8108 19.4694C41.4403 19.2788 42.2797 18.961 42.6574 18.7492C43.0142 18.5585 43.3289 18.4526 43.3289 18.5161C43.3289 18.8763 42.5525 20.105 41.902 20.7829C41.0206 21.7362 41.2724 21.821 43.0561 21.1854C44.1263 20.8253 44.1473 20.8253 43.9375 21.2278C43.8116 21.4397 43.161 22.1811 42.4686 22.8591C41.2934 24.0242 41.2305 24.1513 41.2305 25.1259C41.2305 26.63 40.517 29.7654 39.8035 31.4814C38.4815 34.7015 35.6486 38.0275 32.8157 39.7012C28.8287 42.0527 23.5197 42.6459 19.05 41.2689C17.5601 40.8028 15 39.6164 15 39.4046C15 39.341 15.7764 39.2563 16.7207 39.2351C18.6932 39.1927 20.6658 38.6419 22.3445 37.6674L23.4777 36.9895L22.1767 36.5446C20.33 35.909 18.6723 34.4473 18.2526 33.0703C18.1267 32.6254 18.1686 32.6042 19.3438 32.6042L20.5609 32.583L19.5326 32.0957C18.3155 31.4814 17.2034 30.4433 16.6578 29.384C16.2591 28.6214 15.7554 26.6935 15.9023 26.5452C15.9443 26.4817 16.385 26.6088 16.8886 26.7783C18.3365 27.3079 18.5254 27.1808 17.686 26.291C16.1122 24.681 15.6295 22.2871 16.385 20.0203L16.7417 19.0034L18.1267 20.3804C20.9596 23.1556 24.2961 24.8081 28.1152 25.2953L29.1645 25.4224Z" fill="#674172"/>
</svg>
